<svg width="172" height="37" viewBox="0 0 172 37" fill="none" xmlns="http://www.w3.org/2000/svg">
<path d="M55.2053 36.2567V1.98468H59.6693V21.8567L63.1253 21.7127L69.3653 12.2087H74.3093L67.0133 23.3927L74.6453 36.2567H69.7013L63.2213 25.6487L59.6693 25.7927V36.2567H55.2053Z" fill="#ED4051"/>
<path d="M87.5217 36.7367C85.0577 36.7367 83.1057 36.2887 81.6657 35.3927C80.2577 34.4647 79.2337 33.0887 78.5937 31.2647C77.9537 29.4407 77.6337 27.1527 77.6337 24.4007C77.6337 21.3927 78.0497 18.9607 78.8817 17.1047C79.7457 15.2487 80.9457 13.8887 82.4817 13.0247C84.0177 12.1607 85.8577 11.7287 88.0017 11.7287C91.2977 11.7287 93.7777 12.6247 95.4417 14.4167C97.1377 16.1767 97.9857 19.0247 97.9857 22.9607L97.7457 25.9847H82.1937C82.2257 28.2887 82.6577 30.0327 83.4897 31.2167C84.3217 32.3687 85.8257 32.9447 88.0017 32.9447C88.9297 32.9447 89.9377 32.9287 91.0257 32.8967C92.1457 32.8327 93.2497 32.7687 94.3377 32.7047C95.4257 32.6407 96.3537 32.5767 97.1217 32.5127L97.2177 35.8727C96.4177 36.0007 95.4577 36.1287 94.3377 36.2567C93.2177 36.4167 92.0497 36.5287 90.8337 36.5927C89.6497 36.6887 88.5457 36.7367 87.5217 36.7367ZM82.1937 22.6727H93.5217C93.5217 19.9527 93.0737 18.0487 92.1777 16.9607C91.3137 15.8727 89.9217 15.3287 88.0017 15.3287C86.1137 15.3287 84.6737 15.8887 83.6817 17.0087C82.6897 18.1287 82.1937 20.0167 82.1937 22.6727ZM83.9217 8.08068L82.4337 5.29668L92.6097 0.544678L94.4817 4.24068L83.9217 8.08068Z" fill="#ED4051"/>
<path d="M110.886 36.7367C109.894 36.7367 108.95 36.6247 108.054 36.4007C107.158 36.1767 106.342 35.8087 105.606 35.2967C104.902 34.7527 104.278 34.0167 103.734 33.0887C103.222 32.1607 102.822 30.9927 102.534 29.5847C102.278 28.1447 102.15 26.4167 102.15 24.4007C102.15 21.5847 102.486 19.2487 103.158 17.3927C103.83 15.5047 104.902 14.0967 106.374 13.1687C107.846 12.2087 109.814 11.7287 112.278 11.7287C113.142 11.7287 114.134 11.8087 115.254 11.9687C116.374 12.0967 117.238 12.2087 117.846 12.3047V1.98468H122.358V36.2567H117.942L117.894 34.7207C117.414 35.0087 116.774 35.3127 115.974 35.6327C115.206 35.9527 114.374 36.2087 113.478 36.4007C112.582 36.6247 111.718 36.7367 110.886 36.7367ZM111.702 32.8487C112.47 32.8487 113.238 32.7687 114.006 32.6087C114.774 32.4167 115.494 32.1927 116.166 31.9367C116.87 31.6807 117.43 31.4567 117.846 31.2647V16.0487C117.494 15.9847 116.998 15.9207 116.358 15.8567C115.75 15.7927 115.11 15.7287 114.438 15.6647C113.798 15.6007 113.206 15.5687 112.662 15.5687C111.158 15.5687 109.974 15.9047 109.11 16.5767C108.246 17.2487 107.622 18.2407 107.238 19.5527C106.886 20.8647 106.71 22.4807 106.71 24.4007C106.71 26.1927 106.838 27.6327 107.094 28.7207C107.35 29.8087 107.702 30.6567 108.15 31.2647C108.63 31.8727 109.174 32.2887 109.782 32.5127C110.39 32.7367 111.03 32.8487 111.702 32.8487Z" fill="#ED4051"/>
<path d="M137.631 36.7367C135.167 36.7367 133.215 36.2887 131.775 35.3927C130.367 34.4647 129.343 33.0887 128.703 31.2647C128.063 29.4407 127.743 27.1527 127.743 24.4007C127.743 21.3927 128.159 18.9607 128.991 17.1047C129.855 15.2487 131.055 13.8887 132.591 13.0247C134.127 12.1607 135.967 11.7287 138.111 11.7287C141.407 11.7287 143.887 12.6247 145.551 14.4167C147.247 16.1767 148.095 19.0247 148.095 22.9607L147.855 25.9847H132.303C132.335 28.2887 132.767 30.0327 133.599 31.2167C134.431 32.3687 135.935 32.9447 138.111 32.9447C139.039 32.9447 140.047 32.9287 141.135 32.8967C142.255 32.8327 143.359 32.7687 144.447 32.7047C145.535 32.6407 146.463 32.5767 147.231 32.5127L147.327 35.8727C146.527 36.0007 145.567 36.1287 144.447 36.2567C143.327 36.4167 142.159 36.5287 140.943 36.5927C139.759 36.6887 138.655 36.7367 137.631 36.7367ZM132.303 22.6727H143.631C143.631 19.9527 143.183 18.0487 142.287 16.9607C141.423 15.8727 140.031 15.3287 138.111 15.3287C136.223 15.3287 134.783 15.8887 133.791 17.0087C132.799 18.1287 132.303 20.0167 132.303 22.6727Z" fill="#ED4051"/>
<path d="M151.012 36.2567L158.164 24.2567L151.012 12.2087H155.86L161.188 21.2807L166.516 12.2087H171.268L164.116 24.1607L171.268 36.2567H166.42L161.044 27.3287L155.764 36.2567H151.012Z" fill="#ED4051"/>
<path d="M31.1462 34.2483L35.3292 29.621C37.7109 30.7169 40.6243 30.2008 42.4754 28.1531C44.3265 26.1053 44.5469 23.1548 43.2168 20.8954L47.4825 16.1767C51.2826 20.8122 51.2246 27.6539 47.0831 32.2353C42.9417 36.8166 36.1406 37.5627 31.1462 34.2483Z" fill="#ED4051"/>
<path d="M28.4084 31.7735L32.5914 27.1461C31.2614 24.8867 31.4818 21.9362 33.3329 19.8885C35.184 17.8407 38.0973 17.3246 40.4791 18.4206L44.7447 13.7018C39.7503 10.3874 32.9492 11.1335 28.8078 15.7149C24.6664 20.2962 24.6083 27.1379 28.4084 31.7735Z" fill="#ED4051"/>
<path d="M35.1313 27.0882C36.8506 28.6424 39.5043 28.5086 41.0586 26.7892C42.6128 25.0699 42.479 22.4162 40.7596 20.8619C39.0403 19.3077 36.3865 19.4415 34.8323 21.1609C33.2781 22.8802 33.4119 25.534 35.1313 27.0882Z" fill="#ED4051"/>
<path d="M0.163208 36.2567V3.18468H12.3552C14.8832 3.18468 16.9632 3.58468 18.5952 4.38468C20.2272 5.15268 21.4432 6.33668 22.2432 7.93668C23.0432 9.53668 23.4432 11.6007 23.4432 14.1287C23.4432 16.6247 23.0432 18.7207 22.2432 20.4167C21.4432 22.1127 20.2272 23.3927 18.5952 24.2567C16.9632 25.1207 14.8832 25.5527 12.3552 25.5527H4.77121V36.2567H0.163208ZM4.77121 21.6647H12.3072C14.5792 21.6647 16.2112 21.0247 17.2032 19.7447C18.2272 18.4327 18.7392 16.5607 18.7392 14.1287C18.7392 11.6967 18.2272 9.92068 17.2032 8.80068C16.2112 7.68068 14.5792 7.12068 12.3072 7.12068H4.77121V21.6647Z" fill="#ED4051"/>
</svg>
