<svg width="22" height="21" viewBox="0 0 22 21" fill="none" xmlns="http://www.w3.org/2000/svg">
<path d="M0.954815 17.4284C0.355799 18.0007 0.334101 18.9502 0.906352 19.5492C1.4786 20.1482 2.4281 20.1699 3.02712 19.5977L0.954815 17.4284ZM18.5587 8.78363C18.5587 11.9403 15.9997 14.4993 12.8431 14.4993V17.4993C17.6566 17.4993 21.5587 13.5971 21.5587 8.78363H18.5587ZM12.8431 14.4993C9.68642 14.4993 7.12744 11.9403 7.12744 8.78363H4.12744C4.12744 13.5971 8.02956 17.4993 12.8431 17.4993V14.4993ZM7.12744 8.78363C7.12744 5.62697 9.68642 3.06799 12.8431 3.06799V0.0679932C8.02956 0.0679932 4.12744 3.97012 4.12744 8.78363H7.12744ZM12.8431 3.06799C15.9997 3.06799 18.5587 5.62697 18.5587 8.78363H21.5587C21.5587 3.97012 17.6566 0.0679932 12.8431 0.0679932V3.06799ZM6.28145 12.3398L0.954815 17.4284L3.02712 19.5977L8.35376 14.509L6.28145 12.3398Z" fill="#FCF300"/>
</svg>
