<svg width="172" height="37" viewBox="0 0 172 37" fill="none" xmlns="http://www.w3.org/2000/svg">
<path d="M55.0421 36.159V1.88702H59.5061V21.759L62.9621 21.615L69.2021 12.111H74.1461L66.8501 23.295L74.4821 36.159H69.5381L63.0581 25.551L59.5061 25.695V36.159H55.0421Z" fill="black"/>
<path d="M87.3585 36.639C84.8945 36.639 82.9425 36.191 81.5025 35.295C80.0945 34.367 79.0705 32.991 78.4305 31.167C77.7905 29.343 77.4705 27.055 77.4705 24.303C77.4705 21.295 77.8865 18.863 78.7185 17.007C79.5825 15.151 80.7825 13.791 82.3185 12.927C83.8545 12.063 85.6945 11.631 87.8385 11.631C91.1345 11.631 93.6145 12.527 95.2785 14.319C96.9745 16.079 97.8225 18.927 97.8225 22.863L97.5825 25.887H82.0305C82.0625 28.191 82.4945 29.935 83.3265 31.119C84.1585 32.271 85.6625 32.847 87.8385 32.847C88.7665 32.847 89.7745 32.831 90.8625 32.799C91.9825 32.735 93.0865 32.671 94.1745 32.607C95.2625 32.543 96.1905 32.479 96.9585 32.415L97.0545 35.775C96.2545 35.903 95.2945 36.031 94.1745 36.159C93.0545 36.319 91.8865 36.431 90.6705 36.495C89.4865 36.591 88.3825 36.639 87.3585 36.639ZM82.0305 22.575H93.3585C93.3585 19.855 92.9105 17.951 92.0145 16.863C91.1505 15.775 89.7585 15.231 87.8385 15.231C85.9505 15.231 84.5105 15.791 83.5185 16.911C82.5265 18.031 82.0305 19.919 82.0305 22.575ZM83.7585 7.98302L82.2705 5.19902L92.4465 0.447021L94.3185 4.14302L83.7585 7.98302Z" fill="black"/>
<path d="M110.723 36.639C109.731 36.639 108.787 36.527 107.891 36.303C106.995 36.079 106.179 35.711 105.443 35.199C104.739 34.655 104.115 33.919 103.571 32.991C103.059 32.063 102.659 30.895 102.371 29.487C102.115 28.047 101.987 26.319 101.987 24.303C101.987 21.487 102.323 19.151 102.995 17.295C103.667 15.407 104.739 13.999 106.211 13.071C107.683 12.111 109.651 11.631 112.115 11.631C112.979 11.631 113.971 11.711 115.091 11.871C116.211 11.999 117.075 12.111 117.683 12.207V1.88702H122.195V36.159H117.779L117.731 34.623C117.251 34.911 116.611 35.215 115.811 35.535C115.043 35.855 114.211 36.111 113.315 36.303C112.419 36.527 111.555 36.639 110.723 36.639ZM111.539 32.751C112.307 32.751 113.075 32.671 113.843 32.511C114.611 32.319 115.331 32.095 116.003 31.839C116.707 31.583 117.267 31.359 117.683 31.167V15.951C117.331 15.887 116.835 15.823 116.195 15.759C115.587 15.695 114.947 15.631 114.275 15.567C113.635 15.503 113.043 15.471 112.499 15.471C110.995 15.471 109.811 15.807 108.947 16.479C108.083 17.151 107.459 18.143 107.075 19.455C106.723 20.767 106.547 22.383 106.547 24.303C106.547 26.095 106.675 27.535 106.931 28.623C107.187 29.711 107.539 30.559 107.987 31.167C108.467 31.775 109.011 32.191 109.619 32.415C110.227 32.639 110.867 32.751 111.539 32.751Z" fill="black"/>
<path d="M137.468 36.639C135.004 36.639 133.052 36.191 131.612 35.295C130.204 34.367 129.18 32.991 128.54 31.167C127.9 29.343 127.58 27.055 127.58 24.303C127.58 21.295 127.996 18.863 128.828 17.007C129.692 15.151 130.892 13.791 132.428 12.927C133.964 12.063 135.804 11.631 137.948 11.631C141.244 11.631 143.724 12.527 145.388 14.319C147.084 16.079 147.932 18.927 147.932 22.863L147.692 25.887H132.14C132.172 28.191 132.604 29.935 133.436 31.119C134.268 32.271 135.772 32.847 137.948 32.847C138.876 32.847 139.884 32.831 140.972 32.799C142.092 32.735 143.196 32.671 144.284 32.607C145.372 32.543 146.3 32.479 147.068 32.415L147.164 35.775C146.364 35.903 145.404 36.031 144.284 36.159C143.164 36.319 141.996 36.431 140.78 36.495C139.596 36.591 138.492 36.639 137.468 36.639ZM132.14 22.575H143.468C143.468 19.855 143.02 17.951 142.124 16.863C141.26 15.775 139.868 15.231 137.948 15.231C136.06 15.231 134.62 15.791 133.628 16.911C132.636 18.031 132.14 19.919 132.14 22.575Z" fill="black"/>
<path d="M150.849 36.159L158.001 24.159L150.849 12.111H155.697L161.025 21.183L166.353 12.111H171.105L163.953 24.063L171.105 36.159H166.257L160.881 27.231L155.601 36.159H150.849Z" fill="black"/>
<path d="M30.983 34.1507L35.166 29.5233C37.5477 30.6193 40.4611 30.1032 42.3122 28.0554C44.1633 26.0076 44.3837 23.0572 43.0536 20.7978L47.3193 16.079C51.1194 20.7146 51.0613 27.5562 46.9199 32.1376C42.7785 36.719 35.9774 37.4651 30.983 34.1507Z" fill="black"/>
<path d="M28.2452 31.6758L32.4282 27.0485C31.0982 24.789 31.3185 21.8386 33.1697 19.7908C35.0208 17.7431 37.9341 17.227 40.3158 18.3229L44.5815 13.6041C39.5871 10.2897 32.786 11.0359 28.6446 15.6172C24.5032 20.1986 24.4451 27.0402 28.2452 31.6758Z" fill="black"/>
<path d="M34.968 26.9905C36.6874 28.5448 39.3411 28.4109 40.8954 26.6916C42.4496 24.9723 42.3158 22.3185 40.5964 20.7643C38.8771 19.21 36.2233 19.3439 34.6691 21.0632C33.1149 22.7826 33.2487 25.4363 34.968 26.9905Z" fill="black"/>
<path d="M0 36.159V3.08702H12.192C14.72 3.08702 16.8 3.48702 18.432 4.28702C20.064 5.05502 21.28 6.23902 22.08 7.83902C22.88 9.43902 23.28 11.503 23.28 14.031C23.28 16.527 22.88 18.623 22.08 20.319C21.28 22.015 20.064 23.295 18.432 24.159C16.8 25.023 14.72 25.455 12.192 25.455H4.608V36.159H0ZM4.608 21.567H12.144C14.416 21.567 16.048 20.927 17.04 19.647C18.064 18.335 18.576 16.463 18.576 14.031C18.576 11.599 18.064 9.82302 17.04 8.70302C16.048 7.58302 14.416 7.02302 12.144 7.02302H4.608V21.567Z" fill="black"/>
</svg>
